<svg width="157" height="161" viewBox="0 0 157 161" fill="none" xmlns="http://www.w3.org/2000/svg">
<mask id="mask0_2067_17" style="mask-type:alpha" maskUnits="userSpaceOnUse" x="0" y="5" width="156" height="156">
<rect y="5" width="29" height="156" rx="14.5" fill="#D9D9D9"/>
<rect y="5" width="29" height="156" rx="14.5" fill="#D9D9D9"/>
<rect y="161" width="29" height="156" rx="14.5" transform="rotate(-90 0 161)" fill="#D9D9D9"/>
<rect x="135.451" width="29" height="116.336" rx="14.5" transform="rotate(42.4037 135.451 0)" fill="#D9D9D9"/>
<path d="M59.1349 107.928C57.5897 108.54 56.0148 107.11 56.4761 105.513L64.1122 79.0824C64.5231 77.6605 66.2824 77.1619 67.3782 78.1568L85.3161 94.4451C86.4118 95.4401 86.0848 97.2392 84.7089 97.7849L59.1349 107.928Z" fill="#D9D9D9"/>
</mask>
<g mask="url(#mask0_2067_17)">
<rect x="-49" y="-34" width="254" height="234" fill="url(#paint0_linear_2067_17)"/>
</g>
<defs>
<linearGradient id="paint0_linear_2067_17" x1="78" y1="-34" x2="78" y2="200" gradientUnits="userSpaceOnUse">
<stop stop-color="#1B9D39"/>
<stop offset="1" stop-color="#BCD9C3"/>
</linearGradient>
</defs>
</svg>
