<svg width="113" height="171" viewBox="0 0 113 171" fill="none" xmlns="http://www.w3.org/2000/svg">
<mask id="mask0_2070_29" style="mask-type:alpha" maskUnits="userSpaceOnUse" x="0" y="0" width="113" height="171">
<path d="M0 50C0 44.4772 4.47715 40 10 40H103C108.523 40 113 44.4772 113 50V161C113 166.523 108.523 171 103 171H10C4.47715 171 0 166.523 0 161V50Z" fill="#FF0000"/>
<rect y="10" width="113" height="21" rx="10" fill="#FF0000"/>
<rect x="45" width="24" height="21" rx="5" fill="#FF0000"/>
</mask>
<g mask="url(#mask0_2070_29)">
<path d="M156.837 165.998C156.862 171.521 152.406 176.019 146.883 176.044L-32.1151 176.865C-37.6379 176.89 -42.1356 172.433 -42.1609 166.911L-42.9541 -6.08757C-42.9795 -11.6104 -38.5229 -16.108 -33.0001 -16.1333L145.998 -16.9541C151.521 -16.9794 156.018 -12.5228 156.044 -7.00003L156.837 165.998Z" fill="url(#paint0_linear_2070_29)"/>
</g>
<mask id="mask1_2070_29" style="mask-type:alpha" maskUnits="userSpaceOnUse" x="10" y="57" width="94" height="98">
<rect x="24.7842" y="57" width="97.6156" height="14.7843" rx="7.39215" transform="rotate(89.8127 24.7842 57)" fill="#A63C3C"/>
<rect x="50.7842" y="57" width="97.6156" height="14.7843" rx="7.39215" transform="rotate(89.8127 50.7842 57)" fill="#A63C3C"/>
<rect x="76.7842" y="57" width="97.6156" height="14.7843" rx="7.39215" transform="rotate(89.8127 76.7842 57)" fill="#A63C3C"/>
<rect x="102.784" y="57" width="97.6156" height="14.7843" rx="7.39215" transform="rotate(89.8127 102.784 57)" fill="#A63C3C"/>
</mask>
<g mask="url(#mask1_2070_29)">
<path d="M1.18063 57C1.18982 51.4771 5.67443 47.0075 11.1973 47.0167L101.455 47.167C106.977 47.1762 111.447 51.6608 111.438 57.1836L111.274 155.643C111.265 161.166 106.78 165.635 101.257 165.626L11 165.476C5.47714 165.467 1.00746 160.982 1.01666 155.459L1.18063 57Z" fill="url(#paint1_linear_2070_29)"/>
</g>
<defs>
<linearGradient id="paint0_linear_2070_29" x1="57.3839" y1="176.454" x2="56.499" y2="-16.5437" gradientUnits="userSpaceOnUse">
<stop stop-color="#FF0000"/>
<stop offset="1" stop-color="#FB8989"/>
</linearGradient>
<linearGradient id="paint1_linear_2070_29" x1="56.3259" y1="47.0918" x2="56.1287" y2="165.551" gradientUnits="userSpaceOnUse">
<stop stop-color="#B70000"/>
<stop offset="1" stop-color="#FB8989"/>
</linearGradient>
</defs>
</svg>
